<svg width="412" height="36" viewBox="0 0 412 36" fill="none" xmlns="http://www.w3.org/2000/svg">
<path d="M5.9 13.705L5.765 15.37L6.485 14.335L18.68 1.195H25.565L12.02 15.595L26.015 34H19.265L8.105 18.925L5.855 21.13L5.9 34H0.5V1.195H5.9V13.705ZM60.4143 35.215L35.2593 10.915L36.8343 11.545L36.9243 34H31.5693V0.0699996H31.7943L56.5443 24.37L55.3293 23.965L55.2393 1.195H60.5493V35.215H60.4143ZM67.5131 17.62C67.5131 15.37 67.9481 13.24 68.8181 11.23C69.6881 9.19 70.8881 7.405 72.4181 5.875C73.9481 4.315 75.7181 3.085 77.7281 2.185C79.7681 1.285 81.9281 0.834998 84.2081 0.834998C86.5181 0.834998 88.6781 1.285 90.6881 2.185C92.7281 3.085 94.5281 4.315 96.0881 5.875C97.6481 7.405 98.8631 9.19 99.7331 11.23C100.603 13.24 101.038 15.37 101.038 17.62C101.038 19.96 100.603 22.135 99.7331 24.145C98.8631 26.155 97.6481 27.94 96.0881 29.5C94.5281 31.03 92.7281 32.23 90.6881 33.1C88.6781 33.94 86.5181 34.36 84.2081 34.36C81.9281 34.36 79.7681 33.94 77.7281 33.1C75.7181 32.23 73.9481 31.045 72.4181 29.545C70.8881 28.015 69.6881 26.23 68.8181 24.19C67.9481 22.15 67.5131 19.96 67.5131 17.62ZM73.0031 17.665C73.0031 19.795 73.4981 21.745 74.4881 23.515C75.5081 25.255 76.8731 26.65 78.5831 27.7C80.3231 28.72 82.2581 29.23 84.3881 29.23C86.4881 29.23 88.3781 28.72 90.0581 27.7C91.7381 26.65 93.0731 25.255 94.0631 23.515C95.0531 21.745 95.5481 19.78 95.5481 17.62C95.5481 15.46 95.0381 13.495 94.0181 11.725C93.0281 9.955 91.6781 8.56 89.9681 7.54C88.2581 6.49 86.3531 5.965 84.2531 5.965C82.1531 5.965 80.2481 6.49 78.5381 7.54C76.8281 8.59 75.4781 10 74.4881 11.77C73.4981 13.54 73.0031 15.505 73.0031 17.665ZM102.694 1.42H108.904L116.959 24.46L116.059 24.1L122.359 7.99L124.834 15.235L115.789 35.53L102.694 1.42ZM118.759 1.42H124.069L132.979 23.965L131.944 23.785L139.324 1.42H145.039L132.259 35.44L118.759 1.42ZM165.584 23.38L153.479 1.195H160.049L169.229 18.835L167.609 18.925L176.654 1.195H183.179L170.939 23.38V34H165.584V23.38ZM183.748 17.62C183.748 15.37 184.183 13.24 185.053 11.23C185.923 9.19 187.123 7.405 188.653 5.875C190.183 4.315 191.953 3.085 193.963 2.185C196.003 1.285 198.163 0.834998 200.443 0.834998C202.753 0.834998 204.913 1.285 206.923 2.185C208.963 3.085 210.763 4.315 212.323 5.875C213.883 7.405 215.098 9.19 215.968 11.23C216.838 13.24 217.273 15.37 217.273 17.62C217.273 19.96 216.838 22.135 215.968 24.145C215.098 26.155 213.883 27.94 212.323 29.5C210.763 31.03 208.963 32.23 206.923 33.1C204.913 33.94 202.753 34.36 200.443 34.36C198.163 34.36 196.003 33.94 193.963 33.1C191.953 32.23 190.183 31.045 188.653 29.545C187.123 28.015 185.923 26.23 185.053 24.19C184.183 22.15 183.748 19.96 183.748 17.62ZM189.238 17.665C189.238 19.795 189.733 21.745 190.723 23.515C191.743 25.255 193.108 26.65 194.818 27.7C196.558 28.72 198.493 29.23 200.623 29.23C202.723 29.23 204.613 28.72 206.293 27.7C207.973 26.65 209.308 25.255 210.298 23.515C211.288 21.745 211.783 19.78 211.783 17.62C211.783 15.46 211.273 13.495 210.253 11.725C209.263 9.955 207.913 8.56 206.203 7.54C204.493 6.49 202.588 5.965 200.488 5.965C198.388 5.965 196.483 6.49 194.773 7.54C193.063 8.59 191.713 10 190.723 11.77C189.733 13.54 189.238 15.505 189.238 17.665ZM229.04 22.165C229.04 23.425 229.37 24.595 230.03 25.675C230.69 26.725 231.575 27.58 232.685 28.24C233.825 28.87 235.07 29.185 236.42 29.185C237.89 29.185 239.18 28.87 240.29 28.24C241.43 27.58 242.33 26.725 242.99 25.675C243.65 24.595 243.98 23.425 243.98 22.165V1.195H249.2V22.3C249.2 24.67 248.63 26.77 247.49 28.6C246.35 30.4 244.805 31.81 242.855 32.83C240.935 33.85 238.79 34.36 236.42 34.36C234.08 34.36 231.935 33.85 229.985 32.83C228.065 31.81 226.535 30.4 225.395 28.6C224.285 26.77 223.73 24.67 223.73 22.3V1.195H229.04V22.165ZM266.938 1.195C269.398 1.195 271.528 1.615 273.328 2.455C275.158 3.295 276.568 4.495 277.558 6.055C278.578 7.615 279.088 9.52 279.088 11.77C279.088 13.09 278.893 14.395 278.503 15.685C278.113 16.975 277.468 18.145 276.568 19.195C275.698 20.245 274.543 21.085 273.103 21.715C271.663 22.345 269.878 22.66 267.748 22.66H262.978V34H257.668V1.195H266.938ZM267.658 17.53C269.218 17.53 270.418 17.23 271.258 16.63C272.128 16 272.728 15.25 273.058 14.38C273.418 13.51 273.598 12.7 273.598 11.95C273.598 11.44 273.508 10.87 273.328 10.24C273.148 9.61 272.848 8.995 272.428 8.395C272.008 7.795 271.423 7.3 270.673 6.91C269.953 6.52 269.023 6.325 267.883 6.325H262.978V17.53H267.658ZM273.373 20.725L281.743 34H275.533L267.028 20.86L273.373 20.725ZM291.363 1.195H313.323V6.325H304.863V34H299.553V6.325H291.363V1.195ZM329.208 1.195C331.668 1.195 333.798 1.615 335.598 2.455C337.428 3.295 338.838 4.495 339.828 6.055C340.848 7.615 341.358 9.52 341.358 11.77C341.358 13.09 341.163 14.395 340.773 15.685C340.383 16.975 339.738 18.145 338.838 19.195C337.968 20.245 336.813 21.085 335.373 21.715C333.933 22.345 332.148 22.66 330.018 22.66H325.248V34H319.938V1.195H329.208ZM329.928 17.53C331.488 17.53 332.688 17.23 333.528 16.63C334.398 16 334.998 15.25 335.328 14.38C335.688 13.51 335.868 12.7 335.868 11.95C335.868 11.44 335.778 10.87 335.598 10.24C335.418 9.61 335.118 8.995 334.698 8.395C334.278 7.795 333.693 7.3 332.943 6.91C332.223 6.52 331.293 6.325 330.153 6.325H325.248V17.53H329.928ZM335.643 20.725L344.013 34H337.803L329.298 20.86L335.643 20.725ZM350.129 1.195H355.439V34H350.129V1.195ZM373.77 1.195C377.52 1.195 380.445 2.14 382.545 4.03C384.645 5.89 385.695 8.47 385.695 11.77C385.695 13.09 385.485 14.395 385.065 15.685C384.675 16.975 384.045 18.16 383.175 19.24C382.335 20.29 381.195 21.13 379.755 21.76C378.345 22.39 376.605 22.705 374.535 22.705H369.765V34H364.455V1.195H373.77ZM374.49 17.53C375.63 17.53 376.59 17.335 377.37 16.945C378.15 16.555 378.75 16.075 379.17 15.505C379.62 14.905 379.935 14.275 380.115 13.615C380.295 12.955 380.385 12.385 380.385 11.905C380.385 11.395 380.295 10.825 380.115 10.195C379.965 9.535 379.68 8.92 379.26 8.35C378.84 7.78 378.255 7.3 377.505 6.91C376.755 6.52 375.81 6.325 374.67 6.325H369.765V17.53H374.49ZM409.288 7.99C408.088 7.36 406.828 6.835 405.508 6.415C404.218 5.965 402.973 5.74 401.773 5.74C400.153 5.74 398.878 6.1 397.948 6.82C397.018 7.51 396.553 8.5 396.553 9.79C396.553 10.66 396.868 11.425 397.498 12.085C398.158 12.745 398.998 13.33 400.018 13.84C401.038 14.35 402.118 14.815 403.258 15.235C404.578 15.715 405.853 16.33 407.083 17.08C408.343 17.8 409.363 18.79 410.143 20.05C410.953 21.28 411.358 22.93 411.358 25C411.358 26.71 410.923 28.285 410.053 29.725C409.183 31.135 407.938 32.26 406.318 33.1C404.698 33.94 402.718 34.36 400.378 34.36C398.368 34.36 396.403 34.045 394.483 33.415C392.593 32.755 390.898 31.915 389.398 30.895L391.783 26.71C392.863 27.52 394.153 28.225 395.653 28.825C397.183 29.395 398.593 29.68 399.883 29.68C400.843 29.68 401.773 29.53 402.673 29.23C403.573 28.93 404.323 28.435 404.923 27.745C405.523 27.055 405.823 26.14 405.823 25C405.823 24.1 405.553 23.32 405.013 22.66C404.503 22 403.813 21.43 402.943 20.95C402.103 20.47 401.188 20.035 400.198 19.645C399.178 19.255 398.128 18.82 397.048 18.34C395.998 17.86 395.023 17.275 394.123 16.585C393.223 15.865 392.488 14.995 391.918 13.975C391.348 12.925 391.063 11.665 391.063 10.195C391.063 8.365 391.483 6.79 392.323 5.47C393.163 4.12 394.333 3.07 395.833 2.32C397.333 1.54 399.043 1.105 400.963 1.015C403.303 1.015 405.283 1.3 406.903 1.87C408.553 2.44 410.008 3.115 411.268 3.895L409.288 7.99Z" fill="#5351F4"/>
</svg>
